<svg xmlns="http://www.w3.org/2000/svg" viewBox="0 0 762.47 635.07"><defs><style>.cls-1{fill:#fff;}.cls-2{fill:#5fbfbd;}</style></defs><title>PrincipalPositivaAsset 5</title><g id="Layer_2" data-name="Layer 2"><g id="Capa_1" data-name="Capa 1"><path class="cls-1" d="M2.21,564.67V544.43q28.92,4.43,39.47,4.42,22.11,0,22.11-11.39v-7.15c0-3.63-1-6.4-3.14-8.33s-5.87-2.9-11.32-2.9H36.4Q0,519.08,0,490.17V482q0-14.46,12.08-21.27t38.27-6.8a341.82,341.82,0,0,1,34.54,2.21v19.74Q59.2,472.8,49.5,472.81q-13.44,0-18,2.21-4.93,2.39-4.93,7.49v7.82q0,8.69,14.63,8.68H54.44q18.87,0,27.38,7t8.51,21.26v7.31q0,19.74-14.12,26.71a51.11,51.11,0,0,1-15,5,117.21,117.21,0,0,1-19.82,1.45A307.91,307.91,0,0,1,2.21,564.67Z"/><path class="cls-1" d="M107.68,483.7h23.48v8.17q2.21-5.44,8.67-7.66T159.05,482a71.18,71.18,0,0,1,17.27,1.7q6.54,1.71,10,5.44a20.49,20.49,0,0,1,4.42,8.25,50.08,50.08,0,0,1,1.2,12.34v27q0,12.24-3.58,18.88a19.7,19.7,0,0,1-11,9.35q-7.4,2.73-20.16,2.73-12.24,0-17.69-2a10.9,10.9,0,0,1-7-8v43.72H107.68Zm52.91,67.54a7.74,7.74,0,0,0,5.1-3.58c.9-1.7,1.36-4.25,1.36-7.65V509.56q0-5.62-1.19-8.08c-.8-1.65-2.38-2.75-4.76-3.32a56.57,56.57,0,0,0-11.74-.85,36.46,36.46,0,0,0-10.64,1.19,7.86,7.86,0,0,0-4.93,3.74,16.79,16.79,0,0,0-1.27,7.32V540q0,5.1,1.27,7.65a7.32,7.32,0,0,0,4.85,3.58,42.78,42.78,0,0,0,10.89,1A45,45,0,0,0,160.59,551.24Z"/><path class="cls-1" d="M217.32,565.61a13.32,13.32,0,0,1-8-7.66q-2.3-5.52-2.3-16.58,0-9.87,2.47-15.48a15.24,15.24,0,0,1,8-8.08q5.52-2.46,15.22-2.47h27.9v-5.61q0-5.28-1.45-7.83a8,8,0,0,0-5.27-3.57,47.93,47.93,0,0,0-11.48-1,277.88,277.88,0,0,0-28.92,2V483.7A254.92,254.92,0,0,1,245,482q15.82,0,24.41,2.38t12.33,8.17q3.75,5.77,3.75,16.84V566H261.12v-7.49a16.12,16.12,0,0,1-7.83,7q-4.93,2.21-18.71,2.21Q223,567.74,217.32,565.61ZM255,551.75a7.93,7.93,0,0,0,3.31-1,5.52,5.52,0,0,0,1.62-2.22,7.4,7.4,0,0,0,.68-3.57V529h-17a30,30,0,0,0-8.17.77,4.85,4.85,0,0,0-3.23,3.06q-.85,2.29-.85,8.08,0,5.61.85,7.82a4.62,4.62,0,0,0,3.32,2.89,37.36,37.36,0,0,0,8.76.69A78,78,0,0,0,255,551.75Z"/><path class="cls-1" d="M337.16,567.48q-3.75-.26-9.19-.93a28.66,28.66,0,0,1-8.93-2.39,31.53,31.53,0,0,1-7.23-5.1q-7-5.77-7-19.73V511.94q0-11.24,5.1-18.71a18.43,18.43,0,0,1,5.53-5,39.11,39.11,0,0,1,7.4-3.66,45.51,45.51,0,0,1,8.17-1.7c3.4-.45,6.4-.74,9-.85h9q9.53,0,25,3.06v16.33q-17.52-4.08-26.87-4.08-17.19,0-17.18,11.57v30.28q0,13.1,18.88,13.1,9.18,0,26.37-3.75v16.33a153.44,153.44,0,0,1-27.9,2.9Q340.89,567.74,337.16,567.48Z"/><path class="cls-1" d="M386.83,541v-29.6q0-15.48,9.95-22.46t30.71-7q19.56,0,28.66,6.72t9.1,22.71V531.5H411.84V539q0,7.14,5.1,10.2t18.37,3.07a122.59,122.59,0,0,0,27.56-3.58V564.5a154.24,154.24,0,0,1-32.32,3.24Q386.82,567.74,386.83,541Zm54.78-23.65v-11.9a6.73,6.73,0,0,0-3.32-6.13q-3.32-2-11.14-2-9,0-12.08,2a7,7,0,0,0-3.23,6.13v11.9Z"/><path class="cls-2" d="M501.23,564.5q-9.11-3.22-13-10t-3.92-17.77V447h24.84v44.91a13,13,0,0,1,8.17-7.74q5.94-2.13,18.54-2.13a71.09,71.09,0,0,1,17.26,1.7q6.55,1.71,10,5.44a20.74,20.74,0,0,1,4.42,8.25,50.65,50.65,0,0,1,1.19,12.34v27q0,16.66-10,23.81T526,567.74Q510.33,567.74,501.23,564.5Zm36.15-13.26a7.74,7.74,0,0,0,5.1-3.58q1.37-2.55,1.36-7.65V509.56q0-5.62-1.19-8.08c-.79-1.65-2.38-2.75-4.76-3.32a56.44,56.44,0,0,0-11.74-.85,36.39,36.39,0,0,0-10.63,1.19,8.21,8.21,0,0,0-5,3.74,15.82,15.82,0,0,0-1.36,7.32V540q0,5.1,1.28,7.65a7.35,7.35,0,0,0,4.93,3.58,43.82,43.82,0,0,0,11,1A45,45,0,0,0,537.38,551.24Z"/><path class="cls-2" d="M585.69,541v-29.6q0-15.48,9.95-22.46t30.71-7q19.54,0,28.66,6.72t9.1,22.71V531.5H610.69V539q0,7.14,5.11,10.2t18.37,3.07a122.66,122.66,0,0,0,27.56-3.58V564.5a154.31,154.31,0,0,1-32.32,3.24Q585.68,567.74,585.69,541Zm54.77-23.65v-11.9a6.72,6.72,0,0,0-3.31-6.13q-3.31-2-11.15-2-9,0-12.07,2a7,7,0,0,0-3.24,6.13v11.9Z"/><path class="cls-2" d="M680.78,541v-29.6q0-15.48,10-22.46t30.71-7q19.56,0,28.66,6.72t9.1,22.71V531.5H705.79V539q0,7.14,5.1,10.2t18.37,3.07a122.66,122.66,0,0,0,27.56-3.58V564.5a154.31,154.31,0,0,1-32.32,3.24Q680.78,567.74,680.78,541Zm54.78-23.65v-11.9a6.73,6.73,0,0,0-3.32-6.13q-3.32-2-11.14-2-9,0-12.08,2a7,7,0,0,0-3.23,6.13v11.9Z"/><path class="cls-1" d="M319.13,596.64H304.82v-4.42h34.92v4.42H325.5v37.78h-6.37Z"/><path class="cls-1" d="M346.77,592.22h28.35v4.42H353.07v13.78H373v4.42h-19.9V630h22.7v4.42h-29Z"/><path class="cls-1" d="M383.18,623.62v-20q0-12.09,17.75-12.09a52.63,52.63,0,0,1,11.58,1.24v4.68a47.59,47.59,0,0,0-11.45-1.56,28.62,28.62,0,0,0-4.42.29,15.73,15.73,0,0,0-3.64,1c-2.52,1.08-3.77,3.21-3.77,6.37V623.3q0,7.28,12.09,7.28A47.59,47.59,0,0,0,412.77,629v4.81a53.83,53.83,0,0,1-11.84,1.24Q383.19,635.07,383.18,623.62Z"/><path class="cls-1" d="M421.15,592.22h6.31v18.2H449.9v-18.2h6.3v42.2h-6.3V614.84H427.46v19.58h-6.31Z"/><path class="cls-1" d="M467.13,592.22h7.6l23,34.85V592.22h5.53v42.2h-7.61l-23-35.44v35.44h-5.52Z"/><path class="cls-1" d="M513,623.62v-20q0-12.09,17.69-12.09,17.88,0,17.88,12v20q0,6.12-4.94,8.78t-12.94,2.67Q513,635.07,513,623.62Zm29.46-.06V603.47q0-7.82-11.71-7.81-5.65,0-8.68,1.76c-2,1.17-3,3.18-3,6.05v20.09q0,7.28,11.77,7.28T542.43,623.56Z"/><path class="cls-1" d="M558.29,592.22h6.31V630h20.74v4.42H558.29Z"/><path class="cls-1" d="M590.93,623.62v-20q0-12.09,17.69-12.09,17.88,0,17.88,12v20q0,6.12-4.94,8.78t-12.94,2.67Q590.94,635.07,590.93,623.62Zm29.46-.06V603.47q0-7.82-11.7-7.81c-3.78,0-6.67.59-8.69,1.76s-3,3.18-3,6.05v20.09q0,7.28,11.77,7.28T620.39,623.56Z"/><path class="cls-1" d="M649.1,634.81a31.12,31.12,0,0,1-4.85-1,18.52,18.52,0,0,1-4.81-2,9.38,9.38,0,0,1-3.18-3.29,9.52,9.52,0,0,1-1.3-4.94v-20a10.3,10.3,0,0,1,1.88-6.24,10.55,10.55,0,0,1,5.2-3.77,34.81,34.81,0,0,1,12.36-2.08,91.87,91.87,0,0,1,14.56,1v4.87a61.29,61.29,0,0,0-7.05-1.07,71.94,71.94,0,0,0-7.38-.49q-13.34,0-13.33,7.67v19.9a5.57,5.57,0,0,0,1.27,3.64,7.12,7.12,0,0,0,3.48,2.28,19.15,19.15,0,0,0,4.16,1.07,32.87,32.87,0,0,0,4.68.3,40.53,40.53,0,0,0,9.3-1.17V614.84H654.2v-4.42h15.74v22.7a69.6,69.6,0,0,1-15.54,2A48.64,48.64,0,0,1,649.1,634.81Z"/><path class="cls-1" d="M679.56,592.22h6.31v42.2h-6.31Z"/><path class="cls-1" d="M696.79,592.22h28.36v4.42h-22v13.78H723v4.42H703.1V630h22.7v4.42h-29Z"/><path class="cls-1" d="M733.79,634v-5.27a64.27,64.27,0,0,0,13.27,1.63q4.82,0,7-1.08a4,4,0,0,0,2.21-4v-5.46a4.39,4.39,0,0,0-1.56-3.84q-1.56-1.1-5.46-1.1h-4.94q-6.18,0-8.78-2.47t-2.6-7.67v-3.39a9.43,9.43,0,0,1,1.53-5.59,9.09,9.09,0,0,1,5.13-3.18,37.07,37.07,0,0,1,9.92-1,104.14,104.14,0,0,1,10.86.71V597a82.7,82.7,0,0,0-11.32-1.11q-6,0-8,1.17a4.43,4.43,0,0,0-2,4.1V606a3.52,3.52,0,0,0,1.59,3.22q1.61,1,5.5,1h5.07a17.93,17.93,0,0,1,6.8,1,6.4,6.4,0,0,1,3.44,3.15,13.43,13.43,0,0,1,1,5.69v3.06a13.07,13.07,0,0,1-1.66,7.09,9,9,0,0,1-5.1,3.7,30.24,30.24,0,0,1-9,1.11A96.08,96.08,0,0,1,733.79,634Z"/><polygon class="cls-2" points="466.13 257.71 466.13 355.74 381.23 404.75 296.34 355.74 296.34 257.71 381.23 208.7 466.13 257.71"/><polygon class="cls-2" points="206.04 199.16 206.04 101.14 290.94 52.12 375.83 101.14 375.83 199.16 290.94 248.18 206.04 199.16"/><path class="cls-1" d="M290.91,163.64,369.52,209v90.76l-78.61,45.38-78.6-45.38V209l78.6-45.38m0-7.27-84.89,49v98l84.89,49,84.9-49v-98l-84.9-49Z"/><polygon class="cls-2" points="556.45 199.16 556.45 101.13 471.56 52.12 386.66 101.13 386.66 199.16 471.56 248.17 556.45 199.16"/><path class="cls-1" d="M471.51,163.84l78.6,45.38V300l-78.6,45.38L392.91,300V209.22l78.6-45.38m0-7.26-84.89,49v98l84.89,49,84.9-49v-98l-84.9-49Z"/><path class="cls-1" d="M381.24,7.27l78.6,45.38v90.76l-78.6,45.38-78.61-45.38V52.65L381.24,7.27m0-7.27-84.9,49v98l84.9,49,84.89-49V49L381.24,0Z"/></g></g></svg>