<svg width="622" height="221" viewBox="0 0 622 221" fill="none" xmlns="http://www.w3.org/2000/svg">
<g clip-path="url(#clip0_5274_3073)">
<path fill-rule="evenodd" clip-rule="evenodd" d="M195.94 4.10775C196.551 2.86965 196.043 1.37056 194.805 0.759443C193.567 0.148326 192.068 0.6566 191.457 1.8947L168.696 48.0061C133.407 27.9825 87.7591 33.0069 57.6721 63.0939C21.5486 99.2174 21.5486 157.785 57.6721 193.909C93.7956 230.032 152.363 230.032 188.487 193.909C218.666 163.73 223.629 117.895 203.39 82.561L249.409 59.8468C250.647 59.2357 251.155 57.7366 250.544 56.4985C249.933 55.2604 248.434 54.7521 247.196 55.3632L204.997 76.192C206.521 72.9046 207.209 69.325 207.06 65.774L227.197 51.2015C228.315 50.3921 228.566 48.8291 227.757 47.7106C226.947 46.592 225.384 46.3415 224.266 47.1509L206.138 60.2689C205.331 57.5648 204.005 54.9826 202.16 52.6789L221.354 33.4851C222.33 32.5088 222.33 30.9259 221.354 29.9496C220.378 28.9733 218.795 28.9733 217.818 29.9496L198.625 49.1434C196.321 47.2984 193.739 45.9723 191.035 45.1653L204.153 27.0378C204.962 25.9192 204.711 24.3563 203.593 23.5469C202.474 22.7374 200.911 22.988 200.102 24.1065L185.529 44.2439C181.978 44.0948 178.399 44.7822 175.111 46.3063L195.94 4.10775ZM196.202 86.1093L194.377 87.0098C194.262 87.0666 194.145 87.1137 194.026 87.1515C185.709 90.9969 175.527 89.491 168.67 82.6339C161.812 75.7767 160.307 65.5947 164.152 57.2773C164.19 57.1586 164.237 57.0413 164.294 56.9262L165.149 55.1929C132.858 36.634 90.9215 41.1582 63.3289 68.7508C30.3296 101.75 30.3296 155.253 63.3289 188.252C96.3282 221.251 149.831 221.251 182.83 188.252C210.515 160.567 214.976 118.443 196.202 86.1093ZM172.205 54.3496C179.039 47.5154 190.12 47.5154 196.954 54.3496C203.788 61.1838 203.788 72.2642 196.954 79.0983C190.12 85.9325 179.039 85.9325 172.205 79.0983C165.371 72.2642 165.371 61.1838 172.205 54.3496Z" fill="white"/>
<path d="M395.951 30.7959H389.263L382.863 13.6119C383.076 15.2972 383.236 16.7905 383.343 18.0919C383.471 19.3719 383.535 20.8972 383.535 22.6679V30.7959H378.863V8.61987H385.391L391.951 25.8359C391.481 22.9132 391.247 20.1612 391.247 17.5799V8.61987H395.951V30.7959Z" fill="#DB240B"/>
<path d="M419.761 30.7959L418.609 26.0279H412.145L411.025 30.7959H405.585L412.273 8.61987H418.641L425.329 30.7959H419.761ZM413.041 22.2199H417.713L415.377 12.4279L413.041 22.2199Z" fill="#DB240B"/>
<path d="M442.092 8.07587C443.756 8.07587 445.196 8.31053 446.412 8.77987C447.65 9.2492 448.77 9.96387 449.772 10.9239L447.34 13.7719C445.826 12.5345 444.204 11.9159 442.476 11.9159C441.559 11.9159 440.834 12.1079 440.3 12.4919C439.767 12.8545 439.5 13.3879 439.5 14.0919C439.5 14.5825 439.618 14.9879 439.852 15.3079C440.087 15.6065 440.503 15.8945 441.1 16.1719C441.698 16.4492 442.594 16.7799 443.788 17.1639C446.05 17.8892 447.714 18.7852 448.78 19.8519C449.847 20.8972 450.38 22.3905 450.38 24.3319C450.38 25.7185 450.028 26.9452 449.324 28.0119C448.62 29.0572 447.607 29.8785 446.284 30.4759C444.962 31.0519 443.394 31.3399 441.58 31.3399C439.767 31.3399 438.156 31.0519 436.748 30.4759C435.362 29.8999 434.167 29.1319 433.164 28.1719L435.82 25.2599C436.674 25.9852 437.548 26.5292 438.444 26.8919C439.362 27.2545 440.354 27.4359 441.42 27.4359C442.508 27.4359 443.362 27.2012 443.98 26.7319C444.62 26.2412 444.94 25.5692 444.94 24.7159C444.94 24.1612 444.823 23.7025 444.588 23.3399C444.354 22.9559 443.948 22.6145 443.372 22.3159C442.796 22.0172 441.964 21.6972 440.876 21.3559C438.423 20.6092 436.674 19.6919 435.628 18.6039C434.604 17.5159 434.092 16.1399 434.092 14.4759C434.092 13.1959 434.434 12.0759 435.116 11.1159C435.799 10.1345 436.748 9.38787 437.964 8.87587C439.18 8.34253 440.556 8.07587 442.092 8.07587Z" fill="#DB240B"/>
<path d="M472.793 30.7959L471.641 26.0279H465.177L464.057 30.7959H458.617L465.305 8.61987H471.673L478.361 30.7959H472.793ZM466.073 22.2199H470.745L468.409 12.4279L466.073 22.2199Z" fill="#DB240B"/>
<path d="M273.131 44.9479V71.2439H267.545V44.9479H273.131Z" fill="white"/>
<path d="M303.111 71.2439H295.929L287.569 50.3819C287.797 52.1805 287.974 53.8779 288.101 55.4739C288.253 57.0445 288.329 58.8939 288.329 61.0219V71.2439H283.275V44.9479H290.305L298.817 65.8479C298.31 62.4532 298.057 59.3372 298.057 56.4999V44.9479H303.111V71.2439Z" fill="white"/>
<path d="M330.659 44.9479L330.051 49.3179H323.401V71.2439H317.815V49.3179H310.823V44.9479H330.659Z" fill="white"/>
<path d="M353.77 44.9479L353.162 49.0139H343.662V55.8539H351.946V59.8819H343.662V67.1399H353.846V71.2439H338.076V44.9479H353.77Z" fill="white"/>
<path d="M371.148 60.9459H368.298V71.2439H362.712V44.9479H370.92C374.442 44.9479 377.089 45.6065 378.862 46.9239C380.636 48.2159 381.522 50.1792 381.522 52.8139C381.522 54.5365 381.092 55.9552 380.23 57.0699C379.394 58.1845 378.09 59.1345 376.316 59.9199L383.118 71.2439H376.772L371.148 60.9459ZM368.298 56.9939H371.224C372.719 56.9939 373.846 56.6645 374.606 56.0059C375.366 55.3219 375.746 54.2579 375.746 52.8139C375.746 51.4712 375.341 50.4959 374.53 49.8879C373.745 49.2545 372.504 48.9379 370.806 48.9379H368.298V56.9939Z" fill="white"/>
<path d="M410.45 71.2439H403.268L394.908 50.3819C395.136 52.1805 395.314 53.8779 395.44 55.4739C395.592 57.0445 395.668 58.8939 395.668 61.0219V71.2439H390.614V44.9479H397.644L406.156 65.8479C405.65 62.4532 405.396 59.3372 405.396 56.4999V44.9479H410.45V71.2439Z" fill="white"/>
<path d="M434.465 71.2439L432.983 65.3539H424.737L423.255 71.2439H417.441L425.535 44.9479H432.337L440.393 71.2439H434.465ZM425.801 61.2119H431.919L428.841 49.0899L425.801 61.2119Z" fill="white"/>
<path d="M462.932 44.9479L462.324 49.3179H455.674V71.2439H450.088V49.3179H443.096V44.9479H462.932Z" fill="white"/>
<path d="M475.935 44.9479V71.2439H470.349V44.9479H475.935Z" fill="white"/>
<path d="M496.453 44.3399C498.859 44.3399 500.937 44.8845 502.685 45.9739C504.433 47.0379 505.775 48.5959 506.713 50.6479C507.65 52.6999 508.119 55.1825 508.119 58.0959C508.119 60.9585 507.65 63.4285 506.713 65.5059C505.775 67.5579 504.433 69.1285 502.685 70.2179C500.937 71.3072 498.859 71.8519 496.453 71.8519C494.046 71.8519 491.956 71.3199 490.183 70.2559C488.435 69.1665 487.092 67.5959 486.155 65.5439C485.217 63.4665 484.749 60.9839 484.749 58.0959C484.749 55.2585 485.217 52.8139 486.155 50.7619C487.117 48.6845 488.473 47.1012 490.221 46.0119C491.994 44.8972 494.071 44.3399 496.453 44.3399ZM496.453 48.5199C494.527 48.5199 493.071 49.2799 492.083 50.7999C491.12 52.3199 490.639 54.7519 490.639 58.0959C490.639 61.4399 491.133 63.8719 492.121 65.3919C493.109 66.9119 494.553 67.6719 496.453 67.6719C498.378 67.6719 499.822 66.9245 500.785 65.4299C501.747 63.9099 502.229 61.4652 502.229 58.0959C502.229 54.7265 501.747 52.2945 500.785 50.7999C499.822 49.2799 498.378 48.5199 496.453 48.5199Z" fill="white"/>
<path d="M536.748 71.2439H529.566L521.206 50.3819C521.434 52.1805 521.612 53.8779 521.738 55.4739C521.89 57.0445 521.966 58.8939 521.966 61.0219V71.2439H516.912V44.9479H523.942L532.454 65.8479C531.948 62.4532 531.694 59.3372 531.694 56.4999V44.9479H536.748V71.2439Z" fill="white"/>
<path d="M560.763 71.2439L559.281 65.3539H551.035L549.553 71.2439H543.739L551.833 44.9479H558.635L566.691 71.2439H560.763ZM552.099 61.2119H558.217L555.139 49.0899L552.099 61.2119Z" fill="white"/>
<path d="M579.267 44.9479V66.7599H589.679L589.071 71.2439H573.681V44.9479H579.267Z" fill="white"/>
<path d="M285.022 159.025C285.022 163.12 283.447 165.43 279.562 165.43C275.152 165.43 273.787 162.49 273.787 157.87V140.65H266.122V159.025C266.122 168.37 270.217 173.305 279.667 173.305C289.222 173.305 293.002 168.16 293.002 159.025V146.635C293.002 139.075 292.057 136.45 289.222 132.88C285.967 128.785 279.877 123.745 276.097 118.81C274.522 116.815 274.207 115.765 274.207 112.09V99.2799C274.207 95.1849 276.097 93.0849 279.772 93.0849C284.077 93.0849 285.232 96.0249 285.232 100.33V115.03H292.687V99.2799C292.687 89.7249 289.222 84.9999 279.877 84.9999C270.637 84.9999 266.122 89.6199 266.122 99.2799V112.195C266.122 117.97 266.332 120.07 268.957 123.43C272.002 127.315 277.987 132.355 282.397 137.815C284.497 140.44 285.022 141.49 285.022 146.74V159.025Z" fill="white"/>
<path d="M322.672 115.975C322.672 121.33 320.467 123.535 315.847 123.535H310.282V94.0299H315.742C320.782 94.0299 322.672 96.4449 322.672 101.59V115.975ZM310.282 172.36V131.305H315.847C325.927 131.305 330.547 126.685 330.547 115.765V101.59C330.547 90.6699 325.822 85.9449 315.742 85.9449H302.302V172.36H310.282Z" fill="white"/>
<path d="M363.586 172.36L352.351 85.9449H343.006L331.141 172.36H338.911L340.801 157.87H353.716L355.606 172.36H363.586ZM341.746 150.52C343.741 135.715 345.631 121.435 347.416 106.21C349.096 121.435 350.986 135.715 352.771 150.52H341.746Z" fill="white"/>
<path d="M388.503 158.605C388.503 163.225 387.033 165.43 383.148 165.43C379.368 165.43 377.478 163.12 377.478 158.605V99.8049C377.478 95.2899 379.368 93.0849 383.148 93.0849C387.243 93.0849 388.503 95.1849 388.503 99.8049V115.03H395.748V99.6999C395.748 89.9349 391.548 84.9999 383.148 84.9999C374.013 84.9999 369.393 89.9349 369.393 99.9099V158.71C369.393 168.475 374.013 173.305 383.148 173.305C391.968 173.305 395.748 168.58 395.748 158.5V140.65H388.503V158.605Z" fill="white"/>
<path d="M428.466 172.36V164.485H413.031V132.355H423.531V124.375H413.031V94.0299H427.941V85.9449H405.051V172.36H428.466Z" fill="white"/>
<path d="M483.905 172.36L472.67 85.9449H463.325L451.46 172.36H459.23L461.12 157.87H474.035L475.925 172.36H483.905ZM462.065 150.52C464.06 135.715 465.95 121.435 467.735 106.21C469.415 121.435 471.305 135.715 473.09 150.52H462.065Z" fill="white"/>
<path d="M512.251 115.975C512.251 121.33 510.046 123.535 505.426 123.535H499.861V94.0299H505.321C510.361 94.0299 512.251 96.4449 512.251 101.59V115.975ZM499.861 172.36V131.305H505.426C515.506 131.305 520.126 126.685 520.126 115.765V101.59C520.126 90.6699 515.401 85.9449 505.321 85.9449H491.881V172.36H499.861Z" fill="white"/>
<path d="M548.714 115.975C548.714 121.33 546.509 123.535 541.889 123.535H536.324V94.0299H541.784C546.824 94.0299 548.714 96.4449 548.714 101.59V115.975ZM536.324 172.36V131.305H541.889C551.969 131.305 556.589 126.685 556.589 115.765V101.59C556.589 90.6699 551.864 85.9449 541.784 85.9449H528.344V172.36H536.324Z" fill="white"/>
<path d="M583.374 159.025C583.374 163.12 581.799 165.43 577.914 165.43C573.504 165.43 572.139 162.49 572.139 157.87V140.65H564.474V159.025C564.474 168.37 568.569 173.305 578.019 173.305C587.574 173.305 591.354 168.16 591.354 159.025V146.635C591.354 139.075 590.409 136.45 587.574 132.88C584.319 128.785 578.229 123.745 574.449 118.81C572.874 116.815 572.559 115.765 572.559 112.09V99.2799C572.559 95.1849 574.449 93.0849 578.124 93.0849C582.429 93.0849 583.584 96.0249 583.584 100.33V115.03H591.039V99.2799C591.039 89.7249 587.574 84.9999 578.229 84.9999C568.989 84.9999 564.474 89.6199 564.474 99.2799V112.195C564.474 117.97 564.684 120.07 567.309 123.43C570.354 127.315 576.339 132.355 580.749 137.815C582.849 140.44 583.374 141.49 583.374 146.74V159.025Z" fill="white"/>
<path d="M278.018 185.793C280.956 185.72 283.814 186.749 286.03 188.679L283.071 192.209C282.367 191.65 281.587 191.191 280.756 190.846C279.975 190.536 279.141 190.381 278.3 190.392C277.465 190.375 276.64 190.571 275.902 190.962C275.163 191.353 274.537 191.926 274.082 192.627C273.075 194.125 272.57 196.429 272.566 199.54C272.562 202.651 273.067 204.929 274.082 206.374C274.553 207.076 275.194 207.646 275.946 208.03C276.698 208.415 277.536 208.601 278.38 208.572C279.282 208.587 280.176 208.407 281.002 208.044C281.899 207.596 282.751 207.061 283.544 206.448L286.319 210.015C285.278 211.05 284.054 211.882 282.709 212.471C281.252 213.118 279.673 213.443 278.079 213.423C275.859 213.476 273.667 212.924 271.737 211.826C269.894 210.712 268.427 209.072 267.525 207.117C266.478 204.74 265.971 202.161 266.039 199.565C265.976 197.003 266.504 194.461 267.58 192.136C268.506 190.184 269.983 188.547 271.829 187.426C273.703 186.325 275.844 185.76 278.018 185.793V185.793Z" fill="white"/>
<path d="M319.456 212.753V201.474H311.56V212.753H305.328V186.438H311.56V196.618H319.456V186.438H325.682V212.753H319.456Z" fill="white"/>
<path d="M360.686 212.753L359.323 207.092H351.654L350.322 212.753H343.868L351.801 186.438H359.359L367.292 212.753H360.686ZM352.704 202.573H358.23L355.454 190.957L352.704 202.573Z" fill="white"/>
<path d="M391.662 186.438V207.798H401.915L401.301 212.71H385.466V186.438H391.662Z" fill="white"/>
<path d="M427.341 186.438V207.798H437.588L436.974 212.71H421.115V186.438H427.341Z" fill="white"/>
<path d="M472.929 186.438L472.279 190.883H463.02V197.183H471.106V201.554H463.02V208.271H472.929V212.753H456.794V186.438H472.929Z" fill="white"/>
<path d="M513.262 212.753H505.33L497.735 192.363C497.986 194.364 498.177 196.133 498.306 197.68C498.435 199.227 498.533 201.008 498.533 203.108V212.753H493.007V186.438H500.749L508.535 206.865C507.995 203.618 507.715 200.333 507.7 197.041V186.438H513.281L513.262 212.753Z" fill="white"/>
<path d="M545.767 185.793C548.991 185.736 552.119 186.888 554.535 189.023L551.385 192.326C550.588 191.698 549.705 191.188 548.763 190.809C547.895 190.462 546.966 190.293 546.031 190.312C545.123 190.287 544.221 190.485 543.407 190.888C542.592 191.292 541.889 191.889 541.359 192.627C540.2 194.15 539.619 196.466 539.615 199.577C539.615 202.942 540.057 205.334 540.941 206.755C541.382 207.44 541.998 207.995 542.726 208.362C543.454 208.729 544.266 208.895 545.08 208.842C546.323 208.857 547.55 208.558 548.647 207.97V202.009H545.233L544.619 197.6H554.682V210.623C553.285 211.525 551.762 212.216 550.163 212.674C548.569 213.149 546.915 213.393 545.251 213.398C541.256 213.398 538.244 212.234 536.213 209.905C534.183 207.575 533.172 204.133 533.18 199.577C533.11 197.001 533.668 194.447 534.807 192.136C535.826 190.161 537.396 188.525 539.326 187.426C541.294 186.329 543.514 185.765 545.767 185.793Z" fill="white"/>
<path d="M591.19 186.438L590.576 190.883H581.281V197.183H589.373V201.554H581.281V208.271H591.19V212.753H575.055V186.438H591.19Z" fill="white"/>
<path d="M600.78 23.1399L600.46 25.6599H597.04V36.9999H593.76V25.6599H590.18V23.1399H600.78Z" fill="white"/>
<path d="M615.47 36.9999H612.25L612.01 31.5799C611.943 30.2866 611.91 29.1332 611.91 28.1199C611.91 27.3466 611.93 26.6132 611.97 25.9199L609.83 35.5399H606.73L604.45 25.9199C604.53 27.0799 604.57 28.1732 604.57 29.1999C604.57 29.9732 604.55 30.7799 604.51 31.6199L604.27 36.9999H601.07L602.11 23.1399H606.25L608.33 32.5399L610.27 23.1399H614.43L615.47 36.9999Z" fill="white"/>
</g>
<defs>
<clipPath id="clip0_5274_3073">
<rect width="622" height="220.501" fill="white" transform="translate(0 0.500671)"/>
</clipPath>
</defs>
</svg>
