<svg width="222" height="222" viewBox="0 0 222 222" fill="none" xmlns="http://www.w3.org/2000/svg">
<g clip-path="url(#clip0_5275_865)">
<path fill-rule="evenodd" clip-rule="evenodd" d="M165.361 5.10647C165.972 3.86837 165.464 2.36928 164.225 1.75816C162.987 1.14704 161.488 1.65532 160.877 2.89342L138.117 49.0048C102.828 28.9812 57.1796 34.0057 27.0926 64.0927C-9.03087 100.216 -9.03087 158.784 27.0926 194.907C63.2161 231.031 121.784 231.031 157.907 194.907C188.086 164.729 193.05 118.893 172.811 83.5597L218.829 60.8455C220.067 60.2344 220.576 58.7353 219.965 57.4972C219.353 56.2591 217.854 55.7508 216.616 56.3619L174.418 77.1907C175.942 73.9033 176.629 70.3237 176.48 66.7727L196.617 52.2003C197.736 51.3908 197.987 49.8279 197.177 48.7093C196.368 47.5908 194.805 47.3402 193.686 48.1496L175.559 61.2676C174.752 58.5635 173.426 55.9813 171.581 53.6777L190.774 34.4838C191.751 33.5075 191.751 31.9246 190.774 30.9483C189.798 29.972 188.215 29.972 187.239 30.9483L168.045 50.1421C165.741 48.2971 163.159 46.9711 160.455 46.164L173.573 28.0365C174.383 26.918 174.132 25.355 173.013 24.5456C171.895 23.7361 170.332 23.9867 169.522 25.1053L154.95 45.2426C151.399 45.0935 147.819 45.7809 144.532 47.305L165.361 5.10647ZM165.622 87.108L163.798 88.0085C163.683 88.0653 163.565 88.1124 163.447 88.1502C155.129 91.9956 144.947 90.4897 138.09 83.6326C131.233 76.7754 129.727 66.5935 133.572 58.276C133.61 58.1573 133.657 58.04 133.714 57.9249L134.57 56.1916C102.278 37.6327 60.3421 42.1569 32.7495 69.7495C-0.249828 102.749 -0.249828 156.251 32.7495 189.251C65.7488 222.25 119.251 222.25 152.251 189.251C179.935 161.566 184.397 119.442 165.622 87.108ZM141.626 55.3483C148.46 48.5141 159.54 48.5141 166.374 55.3483C173.209 62.1825 173.209 73.2629 166.374 80.097C159.54 86.9312 148.46 86.9312 141.626 80.097C134.791 73.2629 134.791 62.1825 141.626 55.3483Z" fill="white"/>
<path d="M189.78 198L189.46 200.52H186.04V211.86H182.76V200.52H179.18V198H189.78Z" fill="white"/>
<path d="M204.47 211.86H201.25L201.01 206.44C200.943 205.147 200.91 203.993 200.91 202.98C200.91 202.207 200.93 201.473 200.97 200.78L198.83 210.4H195.73L193.45 200.78C193.53 201.94 193.57 203.033 193.57 204.06C193.57 204.833 193.55 205.64 193.51 206.48L193.27 211.86H190.07L191.11 198H195.25L197.33 207.4L199.27 198H203.43L204.47 211.86Z" fill="white"/>
</g>
<defs>
<clipPath id="clip0_5275_865">
<rect width="222" height="222" fill="white"/>
</clipPath>
</defs>
</svg>
